<?xml version="1.0" encoding="UTF-8"?><svg width="280" height="190" viewBox="0 0 280 190" version="1.1" xmlns="http://www.w3.org/2000/svg" xmlns:xlink="http://www.w3.org/1999/xlink"><title>artboard-2</title><g id="artboard-2" stroke-width="1" fill-rule="evenodd"><path d="M0 0H280V190H0z"/><g id="layer-1" transform="translate(11.724 9.8)" stroke-width="2"><path id="Path" d="M129.479747.2 130.242648 5.59573733 136.746873 1.27718894 143.808602 1.80599078 148.425134 6.78064516 145.852787 12.4016129 140.140806 15.310023 138.292237 8.14182028 134.585318 15.1239631 130.320895 10.7074885 126.349894 16.1815668 119.131672 16.8082949 110.221374 16.1717742 106.269935 9.04274194 114.123909 11.3733871 116.608229 6.09516129 122.916838 9.6890553 123.1907 2.30541475 116.666914.591705069 109.830143 2.01163594 102.298935 1.47304147 98.0345115 8.02430876 93.388637 13.5963134 93.897238 20.137788 101.584938 15.6625576 108.108724 21.8123272 114.417332 23.0657834 120.452079 26.0035714 125.518527 22.2236175 132.325956 20.7645161 133.401843 27.0513825 132.306395 33.2207373 127.024769 28.2558756 125.557651 35.012788 120.334709 32.7996544 114.026101 29.9891705 106.81766 28.3440092 101.839238 22.8111751 97.8975805 27.0807604 90.151196 26.6400922 85.4857598 22.6349078 80.8790084 27.3157834 74.0128948 29.0392857 69.1322814 26.1798387 77.0938432 21.4989631 73.5629786 16.0738479 68.1835449 12.4016129 73.8466214 8.22016129 80.1650108 11.5398618 85.3879519 17.0041475 87.5886294 9.2483871 94.0537306 1.87453917 86.9528781 1.80599078 80.067203 2.52085253 72.4577495 1.58076037 65.8263748 1.8843318 63.4007393 7.90679724 60.9066382 15.4569124 66.8044537 20.3532258 58.6863992 22.0963134 52.8570492 25.7587558 61.42502 28.1579493 65.9241827 32.7017281 58.001744 34.5035714 53.2776231 38.8906682 49.5315811 31.918318 43.1642878 32.1631336 40.3376399 39.5859447 47.5558618 41.8578341 43.428369 48.2915899 39.0759181 54.9016129 34.6843441 62.0110599 27.5052453 59.4160138 26.1554965 51.6014977 32.4543243 53.1487327 36.5035708 46.6953917 33.0118292 39.5957373 28.7278439 45.1089862 22.0573461 43.0819124 19.9642573 49.0652074 20.1109691 55.2835253 20.5511046 60.9632488 21.0499248 67.1521889 27.104233 67.0738479 32.2293662 70.1487327 29.7743882 77.591129 23.3679717 75.6815668 17.6266488 72.1953917 14.0370994 76.5041475 6.34939964 77.8751152 10.8779047 81.8019585 17.7635799 82.1349078 24.2384619 83.3002304 29.5298685 85.1902074 20.022942 88.3630184 23.3679717 94.1504608 28.9234596 91.9471198 28.9136788 99.3797235 31.0458907 105.784101 33.1096371 112.403917 31.6229573 118.279493 37.4425265 119.2 41.6189232 125.555415 34.8603983 126.485714 32.9922677 133.781221 27.3585335 130.285253 24.0428461 135.583065 29.4907454 140.616475 27.1335753 147.676959 36.0732161 146.354954 38.6162211 138.560023 39.4182457 131.617051 46.1474283 132.635484 44.8563642 141.664286 51.0280418 137.884332 57.2095001 141.262788 53.2678423 147.412558 62.6965225 145.561751 70.3744415 148.705184 72.5653381 157.009332 79.4118901 160.906797 78.864166 151.398157 86.4344963 152.23053 87.9602993 160.554263 94.1319769 152.240323 101.682746 151.642972 112.607886 147.98053 118.838249 145.512788 125.4305 143.475922 130.976207 139.363018 136.238272 134.799654 140.610284 127.494355 145.784321 120.375115 149.706417 113.324424 158.597154 119.885484 165.561076 118.113018 162.441004 125.124539 167.59548 128.434447 167.859561 134.505876 161.629199 133.653917 155.574891 136.787558 161.472706 140.900461 168.035615 141.174654 167.781315 147.549654 161.550952 147.784677 155.06629 146.237442 149.853129 154.189055 156.875735 154.58076 163.25281 155.403341 168.749613 154.257604 172.945571 157.156221 178.88251 154.257604 183.675096 151.515668 187.499384 146.825 192.673422 148.098041 194.169882 142.623963 199.891644 143.240899 198.942907 136.993203 204.713572 137.874539 207.814082 133.428687 214.024883 133.66371 211.227577 128.963249 213.887952 123.028917 208.127067 124.536982 203.461631 126.710945 202.092321 131.695392 195.187084 131.597465 192.869037 136.973618 187.548288 133.800806 187.743904 140.518548 182.648113 144.523733 178.579305 147.637788 173.327022 149.684447 174.461593 143.045046 181.288584 138.050806 174.755017 137.257604 174.745236 131.058871 181.816746 130.804263 190.267348 127.817512 185.494323 123.831912 178.814044 123.665438 171.918588 123.117051 172.300039 116.33076 177.875088 115.312327 183.195837 116.986866 185.200899 110.308295 191.030249 109.906797 188.839352 116.673502 192.340875 121.579608 197.749651 125.575 198.091978 119.699424 203.471412 120.110714 209.144269 118.700576 213.506501 113.148157 206.092663 112.883756 200.243752 112.903341 194.590456 114.842281 196.976969 107.546774 202.855222 105.578456 209.52572 105.999539 216.567888 106.802535 220.969243 101.592857 214.073787 97.9989631 206.014417 98.4983871 198.551675 99.6539171 192.164821 103.326152 184.946599 103.531797 180.065985 107.556567 174.236635 107.429263 168.436628 110.32788 162.26495 111.434447 156.151957 112.776037 152.826489 105.48053 153.129693 97.0686636 158.284169 100.075 160.572874 105.2553 166.773893 102.650461 172.270697 99.4384793 177.904431 100.241475 182.002581 95.4920507 189.162118 98.0870968 187.695 91.496659 186.57021 84.3970046 181.063626 89.1464286 174.755017 91.7414747 168.152985 93.6706221 162.998509 95.7074885 157.687541 92.5248848 154.401196 87.5502304 161.697664 87.0018433 166.187046 80.6170507 167.898684 87.4620968 173.493295 84.4851382 179.557384 82.418894 185.298707 77.5813364 192.047451 79.0991935 198.444087 77.0525346 205.163489 74.3889401 211.951356 76.4160138 218.191499 74.0461982 224.441423 74.1832949 231.874822 81.3906682 230.97499 74.4868664 237.567241 67.5145161 245.753761 67.3676267 250.556128 62.4419355 242.868428 59.122235 236.158807 59.2103687 229.263352 62.1089862 229.263352 67.8866359 221.350694 66.5254608 212.264341 68.5525346 204.56686 66.3002304 197.886582 70.2760369 190.79551 71.4707373 184.046766 70.8733871 178.276101 68.2097926 178.305443 75.387788 172.319601 77.8163594 172.955352 70.5502304 167.908465 73.6936636 161.453145 73.7132488 159.594795 80.1470046 153.902376 79.9609447 153.843691 73.7720046 150.635592 67.0738479 157.345213 67.5243088 163.868999 67.964977 168.426847 65.0173963 173.092283 63.0784562 168.016054 56.8797235 160.866297 55.1758065 161.971526 61.7270737 154.675058 60.8261521 153.041666 54.2455069 147.740479 60.0917051 143.671671 54.29447 147.476398 50.4067972 140.287518 47.8802995 135.504712 44.0024194 129.968786 39.5369816 136.913146 37.3923963 142.145868 40.339977 146.596127 44.0807604 152.738462 46.058871 158.704743 48.9672811 166.959728 49.1925115 165.130721 44.2178571 157.883157 41.7794931 163.399521 37.29447 170.128704 38.6458525 175.028879 31.4776498 167.986711 31.2915899 161.140159 29.9793779 158.098334 22.9384793 145.960375 27.2864055 152.70912 29.2351382 156.005245 35.1498848 150.293265 37.7057604 144.933393 34.3468894 139.280097 30.4102535 139.240974 22.8209677 145.706075 19.7167051 151.584329 21.3618664 153.599171 14.5853687 160.122957 11.98053 162.646401 17.0041475 165.385022 23.4476959 172.133766 24.0842166 170.774236 16.8670507 175.380987 10.6095622 168.0943 10.1199309 162.186704 6.08536866 155.203221 6.78064516 151.858191.562327189 159.262248.621082949 166.343539 1.38490783 172.290258 2.4718894 178.325005 1.39470046 181.709158 6.48686636 187.82215 9.51278802 182.080828 14.2132488 178.109827 18.8157834 178.862948 24.7501152 183.645754 28.0306452 186.540867 21.8710829 189.709843 16.4851382 195.861959 12.5191244 201.593501 8.06347926 193.103776 5.59573733 186.990783 1.16947005 198.072417 1.21843318 207.628247 1.63951613 208.117287 10.5703917 213.897733 6.90794931 218.436019 1.28698157 226.720347 2.95172811 233.821199 1.3359447 236.540258 7.92638249 242.193554 14.3699309 244.824586 8.0047235 242.26202 1.23801843 249.881254 2.69711982 256.434382 1.68847926 255.818192 9.37569124 249.744323 13.527765 256.317013 16.8768433 251.025606 22.1550691 245.11801 21.0485023 242.907552 28.1873272 249.803007 29.9206221 256.551752 24.9459677 256.786491 32.7017281 251.436399 36.9419355 256.346355 42.2985023 248.140273 44.247235 244.120369 36.4131336 238.868086 41.808871 233.33216 37.5294931 237.254256 32.0260369 230.466389 29.6855991 224.128438 18.5220046 230.48595 21.7437788 237.410748 23.3987327 235.924069 15.809447 229.322036 12.1861751 221.976664 9.88490783 216.391834 14.996659 210.210375 18.5709677 206.024198 24.0352535 202.737853 16.9160138 195.813055 19.824424 192.389779 26.3267281 199.167865 26.2483871 202.835661 31.0761521 209.036681 30.9096774 213.144612 26.4246544 218.259964 23.1539171 224.020849 27.1591014 218.58273 32.0064516 213.897733 36.1976959 208.381368 37.5197005 211.873109 44.012212 219.599932 39.8993088 225.654241 36.560023 230.309896 44.0415899 224.920681 46.6366359 224.891339 52.8843318 217.976322 52.6199309 217.95676 46.2253456 211.648151 52.6003456 209.290981 60.4736175 215.834329 60.8457373 222.318992 59.3670507 230.212088 55.2541475 234.691689 50.1326037 241.636049 49.7702765 248.599971 52.747235 255.857316 50.1228111 256.228986 58.1429724 256.649559 67.5732719 252.257985 72.4989631 243.690015 74.1832949 237.645487 76.4160138 241.861007 84.8866359 247.445837 79.5202765 256.434382 78.4528802 251.778727 84.7789171 241.77298 93.7391705 249.313968 98.7725806 248.570628 91.5847926 256.561532 88.872235 256.180082 97.1763825 256.013808 104.863594 251.651577 110.278917 245.450557 103.218433 246.086308 110.298502 240.442793 113.206912 239.494056 107.429263 238.330143 100.780069 233.429967 95.3157834 235.190509 88.3728111 227.854918 87.981106 223.385098 81.8019585 216.440738 83.0064516 209.574624 83.1925115 204.165848 82.6441244 198.336498 83.9367512 193.103776 87.1095622 194.795853 93.7 200.830599 91.1441244 207.334824 90.8503456 213.839048 90.8307604 219.94226 90.0179724 224.695723 94.277765 227.287632 99.9085253 232.168246 104.276037 232.774655 111.023157 233.263694 116.879147 226.055253 108.437903 221.05727 113.108986 226.964866 116.84977 221.781048 122.176959 217.242762 118.553687 217.995883 127.739171 220.088972 134.652765 224.519669 129.22765 227.228948 124.04735 232.393204 123.254147 237.048859 127.425806 231.874822 129.678111 228.793874 134.084793 235.180729 135.710369 234.026596 143.280069 237.547679 147.823848 242.183773 146.394124 247.406714 144.993779 252.297109 149.233986 251.935219 140.910253 245.959158 137.854954 240.051561 140.195392 240.53082 132.782373 246.272143 131.098041 242.623909 125.320392 238.868086 121.491475 238.555101 117.114171 245.753761 117.006452 251.788508 118.651613 256.894079 113.490899 256.991887 121.804839 247.132852 123.567512 251.70048 126.250691 256.991887 129.08076 251.680919 133.409101 256.952764 136.435023 256.991887 144.32788 257.27553 151.995507 252.482944 156.578456 257.079914 160.603226 251.348372 164.079608 256.013808 169.377419 247.739261 169.935599 244.169273 163.63894 246.2428 158.23341 246.917675 151.564631 241.40131 153.601498 234.809059 152.925806 230.642443 148.959793 226.192184 145.316935 230.055595 140.068088 224.607696 137.95288 220.284588 141.6447 215.267043 140.07788 210.415772 140.479378 206.200252 143.897005 203.539878 148.852074 198.101759 150.683295 193.729747 155.236866 188.536148 153.914862 184.702079 158.625115 191.069372 161.935023 198.35606 159.94712 203.989794 155.148733 209.27142 150.771429 214.435676 146.727074 220.568231 147.353802 215.804986 153.914862 221.331132 154.453456 226.338896 153.219585 230.476169 157.773157 224.470765 161.416014 230.85762 163.932719 237.958473 158.6447 237.322721 164.657373 240.677532 169.808295 233.116982 170.2 225.742268 169.2697 219.189139 169.210945 212.528422 168.26106 217.898075 161.553111 211.198235 158.723041 205.486255 162.532373 205.897048 169.436175 199.304796 168.564631 192.683202 169.122811 185.973581 169.318664 182.080828 164.627995 177.747938 160.573848 177.630569 170.092281 173.05316 165.313479 167.057536 162.170046 167.566137 169.553687 159.330713 169.622235 159.937122 162.522581 152.650435 161.641244 150.185676 169.45576 145.109447 163.090553 140.277737 169.945392 137.226131 163.198272 129.538431 160.936175 131.083796 169.45576 123.728643 167.223041 117.537404 169.553687 114.524921 161.709793 122.124594 157.978802 135.328658 155.795046 141.969814 154.737442 146.576565 148.264516 150.048745 142.173502 148.718558 136.102074 151.10507 131.029493 156.171519 128.062327 152.484161 120.91371 147.407932 126.466129 143.339124 133.604954 143.29022 140.616475 138.732373 144.651037 133.665924 147.481106 128.785311 152.710369 122.418017 150.810599 115.023741 154.590553 107.746835 152.690783 96.948844 159.976498 105.360322 160.877419 109.30198 168.917166 100.626421 168.682143 92.2736271 168.280645 83.4122326 169.0053 73.357582 168.760484 67.1467813 161.768548 62.2857294 152.984562 58.8428918 161.28871 62.3541949 169.191359 52.5342832 169.82788 50.7639605 163.462673 53.0624458 154.992051 45.2475957 149.312327 38.9781103 153.98341 44.7976794 159.212673 42.3035784 169.064055 30.9480829 169.034677 36.4155437 162.757604 31.4371223 155.755876 24.9818018 162.228802 23.6907377 154.708065 17.8809493 151.114171 13.3426635 145.640092 20.1696539 142.232258 16.1497498 135.465553 9.5477175 137.198848 7.22967061 144.602074 8.6967889 153.993203 15.9345724 159.888364 21.2357598 168.789862 12.6580083 168.966129 7.77739477 163.26682 1.86979849 168.613594 1.0090891 158.83076 1.04821225 149.233986 1.11667777 140.07788.940623575 132.73341 6.93624696 129.648733 12.8047201 127.729378 19.700176 128.826152 17.9689764 121.69712 12.3254615 119.699424 11.9831339 112.942512 6.82865828 122.10841.764569382 125.007028.275529954 117.545046 5.78211391 114.411406.461364936 109.838249 6.96558932 106.587097.70588465 102.102074.764569382 94.8065668.803692536 88.4413594 7.71871004 93.1124424 7.60134058 99.4091014 14.0273187 101.0053 13.7827989 106.782949 18.8492474 115.253571 23.954819 123.978802 29.3538143 123.880876 25.157856 116.781221 25.7936073 109.750115 19.7099568 108.927535 21.7737032 101.964977 16.4040503 94.7478111 12.7362546 88.5392857 6.19290703 85.1608295.343995474 81.6256912.353776262 75.2213134 5.5375942 71.48053.461364936 68.0139401 1.11667777 60.8849078 7.21010904 63.3232719 10.9757126 70.168318 14.4772349 64.7334101 13.088363 58.2506912 13.4404713 51.5721198 7.24923219 54.0104839.872158056 54.1965438 1.0873354 47.8019585 7.79695635 44.7662442 14.1642497 44.5997696 1.29273196 39.997235 1.18514329 32.6625576 1.41988221 24.074424 1.19492408 16.3284562 2.42730344 8.77834101.754788593 1.63951613 7.72849083 1.63951613 15.5139985 1.60034562 11.7386141 8.7 8.9510894 14.9281106 10.0367569 21.4402074 8.21753026 28.4419355 8.84350073 36.3445853 16.3160232 38.8417051 16.834405 32.652765 25.5882107 37.2357143 24.7764053 30.185023 16.4920774 25.3964286 22.751782 22.0865207 17.6070873 16.0248848 19.9349149 8.22016129 26.8010285 10.0611751 28.4050778 17.3077189 37.002391 20.7449309 30.4297011 25.0536866 33.7551692 32.3198157 38.5086324 27.3157834 45.0128568 22.3802995 51.2236575 17.1314516 55.6347932 11.1383641 55.2337808 5.09631336 58.9309189.777764977 49.2185959 1.01278802 48.1427091 8.32788018 43.5359577 13.5081797 36.6600634 15.231682 34.733248 9.35610599 41.071199 2.99089862 32.9042406 1.74723502 24.5905703 1.6297235"/></g><g id="layer-0" transform="translate(50.796 44.763)"><path d="M52,2.64976959 C61.8176978,2.64976959 70.9938209,5.39680834 78.8014409,10.164487 C86.8764136,15.0954231 93.4877066,22.1874017 97.8312545,30.6365086 C101.454929,37.6853109 103.5,45.678724 103.5,54.1497696 C103.5,68.3711019 97.7356662,81.2461019 88.4159992,90.5657688 C79.0963323,99.8854357 66.2213323,105.64977 52.0043916,105.649789 C37.6753202,105.523929 24.8138518,99.7365164 15.5272251,90.4498897 C6.21681608,81.1394806 0.5,68.3122286 0.5,54.1497696 C0.5,39.9284373 6.26433385,27.0534373 15.5840008,17.7337704 C24.9036677,8.41410343 37.7786677,2.64976959 52,2.64976959 Z" id="Oval"/><path d="M150.90553,0.5 C154.633452,0.5 158.008452,2.01103897 160.451471,4.45405845 C162.894491,6.89707794 164.40553,10.2720779 164.40553,14 C164.40553,17.7279221 162.894491,21.1029221 160.451471,23.5459415 C158.008452,25.988961 154.633452,27.5 150.90553,27.5 C150.408962,27.5 149.918653,27.4732101 149.435971,27.4209796 C145.159687,26.9582476 141.482609,24.4982061 139.355727,20.9933944 C138.117978,18.9537518 137.40553,16.5600614 137.40553,14 C137.40553,10.2720779 138.916569,6.89707794 141.359588,4.45405845 C143.802608,2.01103897 147.177608,0.5 150.90553,0.5 Z" id="Oval"/></g></g></svg>