<?xml version="1.0" encoding="UTF-8"?><svg width="280" height="190" viewBox="0 0 280 190" version="1.1" xmlns="http://www.w3.org/2000/svg" xmlns:xlink="http://www.w3.org/1999/xlink"><title>artboard-1</title><g id="artboard-1" stroke-width="1" fill-rule="evenodd"><path d="M0 0H280V190H0z"/><g id="layer-1" transform="translate(61 16)" stroke-width=".5"><path id="Rectangle" fill-rule="nonzero" d="M0 0H6V6H0z"/><path id="Rectangle" fill-rule="nonzero" d="M152 0H158V6H152z"/><path id="Rectangle" d="M1 16H5V20H1z"/><path id="Rectangle" d="M153 16H157V20H153z"/><path id="Rectangle" fill-rule="nonzero" d="M0 23H6V29H0z"/><path id="Rectangle" fill-rule="nonzero" d="M152 23H158V29H152z"/><path id="Rectangle" fill-rule="nonzero" d="M0 30H6V36H0z"/><path id="Rectangle" fill-rule="nonzero" d="M152 30H158V36H152z"/><path id="Path" d="M1 73 5 69"/><path id="Path" d="M153 73 157 69"/><path id="Rectangle" fill-rule="nonzero" d="M0 84H6V90H0z"/><path id="Rectangle" fill-rule="nonzero" d="M152 84H158V90H152z"/><path id="Path" fill-rule="nonzero" d="M1 100 5 104"/><path id="Path" fill-rule="nonzero" d="M1 104 5 100"/><path id="Path" fill-rule="nonzero" d="M153 100 157 104"/><path id="Path" fill-rule="nonzero" d="M153 104 157 100"/><path id="Path" d="M1 127 5 123"/><path id="Path" d="M153 127 157 123"/><path id="Rectangle" fill-rule="nonzero" d="M0 129H6V135H0z"/><path id="Rectangle" fill-rule="nonzero" d="M152 129H158V135H152z"/><path id="Path" fill-rule="nonzero" d="M1 138.05 5 138.05"/><path id="Path" fill-rule="nonzero" d="M1 140.010784 5 140.010784"/><path id="Path" fill-rule="nonzero" d="M1 141.971569 5 141.971569"/><path id="Path" fill-rule="nonzero" d="M153 138.05 157 138.05"/><path id="Path" fill-rule="nonzero" d="M153 140.010784 157 140.010784"/><path id="Path" fill-rule="nonzero" d="M153 141.971569 157 141.971569"/><path id="Path" d="M1 149 5 145"/><path id="Path" d="M153 149 157 145"/><path id="Path" fill-rule="nonzero" d="M9 9.05 13 9.05"/><path id="Path" fill-rule="nonzero" d="M9 11.0107843 13 11.0107843"/><path id="Path" fill-rule="nonzero" d="M9 12.9715686 13 12.9715686"/><path id="Path" fill-rule="nonzero" d="M145 9.05 149 9.05"/><path id="Path" fill-rule="nonzero" d="M145 11.0107843 149 11.0107843"/><path id="Path" fill-rule="nonzero" d="M145 12.9715686 149 12.9715686"/><path id="Path" d="M9 20 13 16"/><path id="Path" d="M145 20 149 16"/><path id="Rectangle" d="M9 31H13V35H9z"/><path id="Rectangle" d="M145 31H149V35H145z"/><path id="Rectangle" d="M9 39H13V43H9z"/><path id="Rectangle" d="M145 39H149V43H145z"/><circle id="Oval" cx="10.5" cy="48.5" r="1"/><circle id="Oval" cx="147.5" cy="48.5" r="1"/><path id="Rectangle" fill-rule="nonzero" d="M8 53H14V59H8z"/><path id="Rectangle" fill-rule="nonzero" d="M144 53H150V59H144z"/><path id="Rectangle" fill-rule="nonzero" d="M8 61H14V67H8z"/><path id="Rectangle" fill-rule="nonzero" d="M144 61H150V67H144z"/><path id="Rectangle" fill-rule="nonzero" d="M8 68H14V74H8z"/><path id="Rectangle" fill-rule="nonzero" d="M144 68H150V74H144z"/><path id="Path" d="M9 81 13 77"/><path id="Path" d="M145 81 149 77"/><path id="Rectangle" fill-rule="nonzero" d="M8 84H14V90H8z"/><path id="Rectangle" fill-rule="nonzero" d="M144 84H150V90H144z"/><path id="Rectangle" d="M9 130H13V134H9z"/><path id="Rectangle" d="M145 130H149V134H145z"/><path id="Rectangle" fill-rule="nonzero" d="M15 0H21V6H15z"/><path id="Rectangle" fill-rule="nonzero" d="M137 0H143V6H137z"/><path id="Path" d="M16 28 20 24"/><path id="Path" d="M138 28 142 24"/><path id="Rectangle" d="M16 31H20V35H16z"/><path id="Rectangle" d="M138 31H142V35H138z"/><path id="Rectangle" d="M16 47H20V51H16z"/><path id="Rectangle" d="M138 47H142V51H138z"/><path id="Rectangle" fill-rule="nonzero" d="M15 61H21V67H15z"/><path id="Rectangle" fill-rule="nonzero" d="M137 61H143V67H137z"/><path id="Path" d="M16 73 20 69"/><path id="Path" d="M138 73 142 69"/><path id="Path" fill-rule="nonzero" d="M16 130 20 134"/><path id="Path" fill-rule="nonzero" d="M16 134 20 130"/><path id="Path" fill-rule="nonzero" d="M138 130 142 134"/><path id="Path" fill-rule="nonzero" d="M138 134 142 130"/><path id="Rectangle" fill-rule="nonzero" d="M15 137H21V143H15z"/><path id="Rectangle" fill-rule="nonzero" d="M137 137H143V143H137z"/><circle id="Oval" cx="18.5" cy="154.5" r="1"/><circle id="Oval" cx="139.5" cy="154.5" r="1"/><path id="Path" d="M24 5 28 1"/><path id="Path" d="M130 5 134 1"/><path id="Path" fill-rule="nonzero" d="M24 9.05 28 9.05"/><path id="Path" fill-rule="nonzero" d="M24 11.0107843 28 11.0107843"/><path id="Path" fill-rule="nonzero" d="M24 12.9715686 28 12.9715686"/><path id="Path" fill-rule="nonzero" d="M130 9.05 134 9.05"/><path id="Path" fill-rule="nonzero" d="M130 11.0107843 134 11.0107843"/><path id="Path" fill-rule="nonzero" d="M130 12.9715686 134 12.9715686"/><path id="Rectangle" fill-rule="nonzero" d="M23 15H29V21H23z"/><path id="Rectangle" fill-rule="nonzero" d="M129 15H135V21H129z"/><path id="Rectangle" d="M24 24H28V28H24z"/><path id="Rectangle" d="M130 24H134V28H130z"/><circle id="Oval" cx="25.5" cy="33.5" r="1"/><circle id="Oval" cx="132.5" cy="33.5" r="1"/><path id="Rectangle" fill-rule="nonzero" d="M23 38H29V44H23z"/><path id="Rectangle" fill-rule="nonzero" d="M129 38H135V44H129z"/><path id="Rectangle" d="M24 47H28V51H24z"/><path id="Rectangle" d="M130 47H134V51H130z"/><path id="Rectangle" fill-rule="nonzero" d="M23 61H29V67H23z"/><path id="Rectangle" fill-rule="nonzero" d="M129 61H135V67H129z"/><path id="Path" d="M24 73 28 69"/><path id="Path" d="M130 73 134 69"/><path id="Rectangle" fill-rule="nonzero" d="M23 91H29V97H23z"/><path id="Rectangle" fill-rule="nonzero" d="M129 91H135V97H129z"/><path id="Path" d="M24 104 28 100"/><path id="Path" d="M130 104 134 100"/><path id="Path" fill-rule="nonzero" d="M24 107.05 28 107.05"/><path id="Path" fill-rule="nonzero" d="M24 109.010784 28 109.010784"/><path id="Path" fill-rule="nonzero" d="M24 110.971569 28 110.971569"/><path id="Path" fill-rule="nonzero" d="M130 107.05 134 107.05"/><path id="Path" fill-rule="nonzero" d="M130 109.010784 134 109.010784"/><path id="Path" fill-rule="nonzero" d="M130 110.971569 134 110.971569"/><path id="Rectangle" fill-rule="nonzero" d="M23 114H29V120H23z"/><path id="Rectangle" fill-rule="nonzero" d="M129 114H135V120H129z"/><path id="Rectangle" d="M24 130H28V134H24z"/><path id="Rectangle" d="M130 130H134V134H130z"/><path id="Path" fill-rule="nonzero" d="M24 138.05 28 138.05"/><path id="Path" fill-rule="nonzero" d="M24 140.010784 28 140.010784"/><path id="Path" fill-rule="nonzero" d="M24 141.971569 28 141.971569"/><path id="Path" fill-rule="nonzero" d="M130 138.05 134 138.05"/><path id="Path" fill-rule="nonzero" d="M130 140.010784 134 140.010784"/><path id="Path" fill-rule="nonzero" d="M130 141.971569 134 141.971569"/><path id="Rectangle" fill-rule="nonzero" d="M23 144H29V150H23z"/><path id="Rectangle" fill-rule="nonzero" d="M129 144H135V150H129z"/><path id="Path" d="M24 157 28 153"/><path id="Path" d="M130 157 134 153"/><path id="Path" fill-rule="nonzero" d="M31 1 35 5"/><path id="Path" fill-rule="nonzero" d="M31 5 35 1"/><path id="Path" fill-rule="nonzero" d="M123 1 127 5"/><path id="Path" fill-rule="nonzero" d="M123 5 127 1"/><path id="Rectangle" fill-rule="nonzero" d="M30 8H36V14H30z"/><path id="Rectangle" fill-rule="nonzero" d="M122 8H128V14H122z"/><path id="Path" fill-rule="nonzero" d="M31 31 35 35"/><path id="Path" fill-rule="nonzero" d="M31 35 35 31"/><path id="Path" fill-rule="nonzero" d="M123 31 127 35"/><path id="Path" fill-rule="nonzero" d="M123 35 127 31"/><path id="Rectangle" fill-rule="nonzero" d="M30 53H36V59H30z"/><path id="Rectangle" fill-rule="nonzero" d="M122 53H128V59H122z"/><path id="Path" fill-rule="nonzero" d="M31 62 35 66"/><path id="Path" fill-rule="nonzero" d="M31 66 35 62"/><path id="Path" fill-rule="nonzero" d="M123 62 127 66"/><path id="Path" fill-rule="nonzero" d="M123 66 127 62"/><path id="Rectangle" d="M31 85H35V89H31z"/><path id="Rectangle" d="M123 85H127V89H123z"/><path id="Rectangle" d="M31 92H35V96H31z"/><path id="Rectangle" d="M123 92H127V96H123z"/><path id="Path" d="M31 111 35 107"/><path id="Path" d="M123 111 127 107"/><path id="Rectangle" fill-rule="nonzero" d="M30 114H36V120H30z"/><path id="Rectangle" fill-rule="nonzero" d="M122 114H128V120H122z"/><path id="Path" fill-rule="nonzero" d="M31 123.05 35 123.05"/><path id="Path" fill-rule="nonzero" d="M31 125.010784 35 125.010784"/><path id="Path" fill-rule="nonzero" d="M31 126.971569 35 126.971569"/><path id="Path" fill-rule="nonzero" d="M123 123.05 127 123.05"/><path id="Path" fill-rule="nonzero" d="M123 125.010784 127 125.010784"/><path id="Path" fill-rule="nonzero" d="M123 126.971569 127 126.971569"/><path id="Rectangle" fill-rule="nonzero" d="M30 129H36V135H30z"/><path id="Rectangle" fill-rule="nonzero" d="M122 129H128V135H122z"/><path id="Path" fill-rule="nonzero" d="M31 138.05 35 138.05"/><path id="Path" fill-rule="nonzero" d="M31 140.010784 35 140.010784"/><path id="Path" fill-rule="nonzero" d="M31 141.971569 35 141.971569"/><path id="Path" fill-rule="nonzero" d="M123 138.05 127 138.05"/><path id="Path" fill-rule="nonzero" d="M123 140.010784 127 140.010784"/><path id="Path" fill-rule="nonzero" d="M123 141.971569 127 141.971569"/><path id="Rectangle" fill-rule="nonzero" d="M30 144H36V150H30z"/><path id="Rectangle" fill-rule="nonzero" d="M122 144H128V150H122z"/><path id="Rectangle" d="M31 153H35V157H31z"/><path id="Rectangle" d="M123 153H127V157H123z"/><circle id="Oval" cx="41.5" cy="10.5" r="1"/><circle id="Oval" cx="117.5" cy="10.5" r="1"/><circle id="Oval" cx="41.5" cy="25.5" r="1"/><circle id="Oval" cx="117.5" cy="25.5" r="1"/><circle id="Oval" cx="41.5" cy="48.5" r="1"/><circle id="Oval" cx="117.5" cy="48.5" r="1"/><path id="Rectangle" fill-rule="nonzero" d="M38 84H44V90H38z"/><path id="Rectangle" fill-rule="nonzero" d="M114 84H120V90H114z"/><path id="Rectangle" d="M39 92H43V96H39z"/><path id="Rectangle" d="M115 92H119V96H115z"/><path id="Rectangle" fill-rule="nonzero" d="M38 129H44V135H38z"/><path id="Rectangle" fill-rule="nonzero" d="M114 129H120V135H114z"/><path id="Rectangle" fill-rule="nonzero" d="M38 137H44V143H38z"/><path id="Rectangle" fill-rule="nonzero" d="M114 137H120V143H114z"/><circle id="Oval" cx="41.5" cy="147.5" r="1"/><circle id="Oval" cx="117.5" cy="147.5" r="1"/><path id="Path" d="M39 157 43 153"/><path id="Path" d="M115 157 119 153"/><path id="Rectangle" fill-rule="nonzero" d="M46 0H52V6H46z"/><path id="Rectangle" fill-rule="nonzero" d="M106 0H112V6H106z"/><path id="Rectangle" d="M47 9H51V13H47z"/><path id="Rectangle" d="M107 9H111V13H107z"/><path id="Rectangle" fill-rule="nonzero" d="M46 23H52V29H46z"/><path id="Rectangle" fill-rule="nonzero" d="M106 23H112V29H106z"/><path id="Path" fill-rule="nonzero" d="M47 31 51 35"/><path id="Path" fill-rule="nonzero" d="M47 35 51 31"/><path id="Path" fill-rule="nonzero" d="M107 31 111 35"/><path id="Path" fill-rule="nonzero" d="M107 35 111 31"/><path id="Path" d="M47 43 51 39"/><path id="Path" d="M107 43 111 39"/><path id="Path" fill-rule="nonzero" d="M47 47 51 51"/><path id="Path" fill-rule="nonzero" d="M47 51 51 47"/><path id="Path" fill-rule="nonzero" d="M107 47 111 51"/><path id="Path" fill-rule="nonzero" d="M107 51 111 47"/><path id="Path" d="M47 58 51 54"/><path id="Path" d="M107 58 111 54"/><path id="Path" fill-rule="nonzero" d="M47 62 51 66"/><path id="Path" fill-rule="nonzero" d="M47 66 51 62"/><path id="Path" fill-rule="nonzero" d="M107 62 111 66"/><path id="Path" fill-rule="nonzero" d="M107 66 111 62"/><path id="Rectangle" d="M47 77H51V81H47z"/><path id="Rectangle" d="M107 77H111V81H107z"/><path id="Path" fill-rule="nonzero" d="M47 85 51 89"/><path id="Path" fill-rule="nonzero" d="M47 89 51 85"/><path id="Path" fill-rule="nonzero" d="M107 85 111 89"/><path id="Path" fill-rule="nonzero" d="M107 89 111 85"/><path id="Rectangle" fill-rule="nonzero" d="M46 114H52V120H46z"/><path id="Rectangle" fill-rule="nonzero" d="M106 114H112V120H106z"/><path id="Path" fill-rule="nonzero" d="M47 123.05 51 123.05"/><path id="Path" fill-rule="nonzero" d="M47 125.010784 51 125.010784"/><path id="Path" fill-rule="nonzero" d="M47 126.971569 51 126.971569"/><path id="Path" fill-rule="nonzero" d="M107 123.05 111 123.05"/><path id="Path" fill-rule="nonzero" d="M107 125.010784 111 125.010784"/><path id="Path" fill-rule="nonzero" d="M107 126.971569 111 126.971569"/><path id="Rectangle" fill-rule="nonzero" d="M46 144H52V150H46z"/><path id="Rectangle" fill-rule="nonzero" d="M106 144H112V150H106z"/><path id="Path" fill-rule="nonzero" d="M54 16.05 58 16.05"/><path id="Path" fill-rule="nonzero" d="M54 18.0107843 58 18.0107843"/><path id="Path" fill-rule="nonzero" d="M54 19.9715686 58 19.9715686"/><path id="Path" fill-rule="nonzero" d="M100 16.05 104 16.05"/><path id="Path" fill-rule="nonzero" d="M100 18.0107843 104 18.0107843"/><path id="Path" fill-rule="nonzero" d="M100 19.9715686 104 19.9715686"/><path id="Rectangle" fill-rule="nonzero" d="M53 23H59V29H53z"/><path id="Rectangle" fill-rule="nonzero" d="M99 23H105V29H99z"/><path id="Path" fill-rule="nonzero" d="M54 31.05 58 31.05"/><path id="Path" fill-rule="nonzero" d="M54 33.0107843 58 33.0107843"/><path id="Path" fill-rule="nonzero" d="M54 34.9715686 58 34.9715686"/><path id="Path" fill-rule="nonzero" d="M100 31.05 104 31.05"/><path id="Path" fill-rule="nonzero" d="M100 33.0107843 104 33.0107843"/><path id="Path" fill-rule="nonzero" d="M100 34.9715686 104 34.9715686"/><path id="Path" fill-rule="nonzero" d="M54 39 58 43"/><path id="Path" fill-rule="nonzero" d="M54 43 58 39"/><path id="Path" fill-rule="nonzero" d="M100 39 104 43"/><path id="Path" fill-rule="nonzero" d="M100 43 104 39"/><path id="Rectangle" fill-rule="nonzero" d="M53 46H59V52H53z"/><path id="Rectangle" fill-rule="nonzero" d="M99 46H105V52H99z"/><path id="Path" fill-rule="nonzero" d="M54 54 58 58"/><path id="Path" fill-rule="nonzero" d="M54 58 58 54"/><path id="Path" fill-rule="nonzero" d="M100 54 104 58"/><path id="Path" fill-rule="nonzero" d="M100 58 104 54"/><path id="Rectangle" d="M54 62H58V66H54z"/><path id="Rectangle" d="M100 62H104V66H100z"/><path id="Rectangle" fill-rule="nonzero" d="M53 76H59V82H53z"/><path id="Rectangle" fill-rule="nonzero" d="M99 76H105V82H99z"/><circle id="Oval" cx="56.5" cy="101.5" r="1"/><circle id="Oval" cx="101.5" cy="101.5" r="1"/><path id="Path" fill-rule="nonzero" d="M54 107 58 111"/><path id="Path" fill-rule="nonzero" d="M54 111 58 107"/><path id="Path" fill-rule="nonzero" d="M100 107 104 111"/><path id="Path" fill-rule="nonzero" d="M100 111 104 107"/><path id="Rectangle" fill-rule="nonzero" d="M53 114H59V120H53z"/><path id="Rectangle" fill-rule="nonzero" d="M99 114H105V120H99z"/><path id="Path" fill-rule="nonzero" d="M54 123.05 58 123.05"/><path id="Path" fill-rule="nonzero" d="M54 125.010784 58 125.010784"/><path id="Path" fill-rule="nonzero" d="M54 126.971569 58 126.971569"/><path id="Path" fill-rule="nonzero" d="M100 123.05 104 123.05"/><path id="Path" fill-rule="nonzero" d="M100 125.010784 104 125.010784"/><path id="Path" fill-rule="nonzero" d="M100 126.971569 104 126.971569"/><path id="Path" fill-rule="nonzero" d="M54 130.05 58 130.05"/><path id="Path" fill-rule="nonzero" d="M54 132.010784 58 132.010784"/><path id="Path" fill-rule="nonzero" d="M54 133.971569 58 133.971569"/><path id="Path" fill-rule="nonzero" d="M100 130.05 104 130.05"/><path id="Path" fill-rule="nonzero" d="M100 132.010784 104 132.010784"/><path id="Path" fill-rule="nonzero" d="M100 133.971569 104 133.971569"/><path id="Rectangle" fill-rule="nonzero" d="M53 137H59V143H53z"/><path id="Rectangle" fill-rule="nonzero" d="M99 137H105V143H99z"/><path id="Rectangle" fill-rule="nonzero" d="M53 144H59V150H53z"/><path id="Rectangle" fill-rule="nonzero" d="M99 144H105V150H99z"/><path id="Rectangle" fill-rule="nonzero" d="M53 152H59V158H53z"/><path id="Rectangle" fill-rule="nonzero" d="M99 152H105V158H99z"/><path id="Path" fill-rule="nonzero" d="M62 9.05 66 9.05"/><path id="Path" fill-rule="nonzero" d="M62 11.0107843 66 11.0107843"/><path id="Path" fill-rule="nonzero" d="M62 12.9715686 66 12.9715686"/><path id="Path" fill-rule="nonzero" d="M92 9.05 96 9.05"/><path id="Path" fill-rule="nonzero" d="M92 11.0107843 96 11.0107843"/><path id="Path" fill-rule="nonzero" d="M92 12.9715686 96 12.9715686"/><path id="Rectangle" fill-rule="nonzero" d="M61 15H67V21H61z"/><path id="Rectangle" fill-rule="nonzero" d="M91 15H97V21H91z"/><path id="Path" fill-rule="nonzero" d="M62 24 66 28"/><path id="Path" fill-rule="nonzero" d="M62 28 66 24"/><path id="Path" fill-rule="nonzero" d="M92 24 96 28"/><path id="Path" fill-rule="nonzero" d="M92 28 96 24"/><path id="Path" fill-rule="nonzero" d="M62 31.05 66 31.05"/><path id="Path" fill-rule="nonzero" d="M62 33.0107843 66 33.0107843"/><path id="Path" fill-rule="nonzero" d="M62 34.9715686 66 34.9715686"/><path id="Path" fill-rule="nonzero" d="M92 31.05 96 31.05"/><path id="Path" fill-rule="nonzero" d="M92 33.0107843 96 33.0107843"/><path id="Path" fill-rule="nonzero" d="M92 34.9715686 96 34.9715686"/><path id="Rectangle" fill-rule="nonzero" d="M61 38H67V44H61z"/><path id="Rectangle" fill-rule="nonzero" d="M91 38H97V44H91z"/><path id="Path" fill-rule="nonzero" d="M62 47 66 51"/><path id="Path" fill-rule="nonzero" d="M62 51 66 47"/><path id="Path" fill-rule="nonzero" d="M92 47 96 51"/><path id="Path" fill-rule="nonzero" d="M92 51 96 47"/><path id="Path" fill-rule="nonzero" d="M62 54.05 66 54.05"/><path id="Path" fill-rule="nonzero" d="M62 56.0107843 66 56.0107843"/><path id="Path" fill-rule="nonzero" d="M62 57.9715686 66 57.9715686"/><path id="Path" fill-rule="nonzero" d="M92 54.05 96 54.05"/><path id="Path" fill-rule="nonzero" d="M92 56.0107843 96 56.0107843"/><path id="Path" fill-rule="nonzero" d="M92 57.9715686 96 57.9715686"/><path id="Rectangle" fill-rule="nonzero" d="M61 61H67V67H61z"/><path id="Rectangle" fill-rule="nonzero" d="M91 61H97V67H91z"/><path id="Path" fill-rule="nonzero" d="M62 69.05 66 69.05"/><path id="Path" fill-rule="nonzero" d="M62 71.0107843 66 71.0107843"/><path id="Path" fill-rule="nonzero" d="M62 72.9715686 66 72.9715686"/><path id="Path" fill-rule="nonzero" d="M92 69.05 96 69.05"/><path id="Path" fill-rule="nonzero" d="M92 71.0107843 96 71.0107843"/><path id="Path" fill-rule="nonzero" d="M92 72.9715686 96 72.9715686"/><path id="Rectangle" d="M62 77H66V81H62z"/><path id="Rectangle" d="M92 77H96V81H92z"/><path id="Rectangle" d="M62 85H66V89H62z"/><path id="Rectangle" d="M92 85H96V89H92z"/><path id="Path" d="M62 104 66 100"/><path id="Path" d="M92 104 96 100"/><path id="Rectangle" d="M62 115H66V119H62z"/><path id="Rectangle" d="M92 115H96V119H92z"/><circle id="Oval" cx="63.5" cy="124.5" r="1"/><circle id="Oval" cx="94.5" cy="124.5" r="1"/><path id="Path" fill-rule="nonzero" d="M62 145.05 66 145.05"/><path id="Path" fill-rule="nonzero" d="M62 147.010784 66 147.010784"/><path id="Path" fill-rule="nonzero" d="M62 148.971569 66 148.971569"/><path id="Path" fill-rule="nonzero" d="M92 145.05 96 145.05"/><path id="Path" fill-rule="nonzero" d="M92 147.010784 96 147.010784"/><path id="Path" fill-rule="nonzero" d="M92 148.971569 96 148.971569"/><path id="Rectangle" fill-rule="nonzero" d="M68 0H74V6H68z"/><path id="Rectangle" fill-rule="nonzero" d="M84 0H90V6H84z"/><path id="Path" fill-rule="nonzero" d="M69 9.05 73 9.05"/><path id="Path" fill-rule="nonzero" d="M69 11.0107843 73 11.0107843"/><path id="Path" fill-rule="nonzero" d="M69 12.9715686 73 12.9715686"/><path id="Path" fill-rule="nonzero" d="M85 9.05 89 9.05"/><path id="Path" fill-rule="nonzero" d="M85 11.0107843 89 11.0107843"/><path id="Path" fill-rule="nonzero" d="M85 12.9715686 89 12.9715686"/><path id="Path" fill-rule="nonzero" d="M69 24 73 28"/><path id="Path" fill-rule="nonzero" d="M69 28 73 24"/><path id="Path" fill-rule="nonzero" d="M85 24 89 28"/><path id="Path" fill-rule="nonzero" d="M85 28 89 24"/><path id="Path" fill-rule="nonzero" d="M69 31 73 35"/><path id="Path" fill-rule="nonzero" d="M69 35 73 31"/><path id="Path" fill-rule="nonzero" d="M85 31 89 35"/><path id="Path" fill-rule="nonzero" d="M85 35 89 31"/><path id="Path" d="M69 51 73 47"/><path id="Path" d="M85 51 89 47"/><circle id="Oval" cx="71.5" cy="56.5" r="1"/><circle id="Oval" cx="86.5" cy="56.5" r="1"/><path id="Path" d="M69 66 73 62"/><path id="Path" d="M85 66 89 62"/><circle id="Oval" cx="71.5" cy="71.5" r="1"/><circle id="Oval" cx="86.5" cy="71.5" r="1"/><path id="Path" fill-rule="nonzero" d="M69 77 73 81"/><path id="Path" fill-rule="nonzero" d="M69 81 73 77"/><path id="Path" fill-rule="nonzero" d="M85 77 89 81"/><path id="Path" fill-rule="nonzero" d="M85 81 89 77"/><circle id="Oval" cx="71.5" cy="94.5" r="1"/><circle id="Oval" cx="86.5" cy="94.5" r="1"/><path id="Path" d="M69 111 73 107"/><path id="Path" d="M85 111 89 107"/><path id="Path" fill-rule="nonzero" d="M69 123.05 73 123.05"/><path id="Path" fill-rule="nonzero" d="M69 125.010784 73 125.010784"/><path id="Path" fill-rule="nonzero" d="M69 126.971569 73 126.971569"/><path id="Path" fill-rule="nonzero" d="M85 123.05 89 123.05"/><path id="Path" fill-rule="nonzero" d="M85 125.010784 89 125.010784"/><path id="Path" fill-rule="nonzero" d="M85 126.971569 89 126.971569"/><path id="Rectangle" fill-rule="nonzero" d="M68 129H74V135H68z"/><path id="Rectangle" fill-rule="nonzero" d="M84 129H90V135H84z"/><path id="Rectangle" fill-rule="nonzero" d="M68 137H74V143H68z"/><path id="Rectangle" fill-rule="nonzero" d="M84 137H90V143H84z"/><circle id="Oval" cx="71.5" cy="147.5" r="1"/><circle id="Oval" cx="86.5" cy="147.5" r="1"/><path id="Rectangle" d="M69 153H73V157H69z"/><path id="Rectangle" d="M85 153H89V157H85z"/><path id="Rectangle" fill-rule="nonzero" d="M76 0H82V6H76z"/><path id="Rectangle" fill-rule="nonzero" d="M76 0H82V6H76z"/><path id="Path" fill-rule="nonzero" d="M77 9 81 13"/><path id="Path" fill-rule="nonzero" d="M77 13 81 9"/><path id="Path" fill-rule="nonzero" d="M77 9 81 13"/><path id="Path" fill-rule="nonzero" d="M77 13 81 9"/><path id="Path" fill-rule="nonzero" d="M77 16 81 20"/><path id="Path" fill-rule="nonzero" d="M77 20 81 16"/><path id="Path" fill-rule="nonzero" d="M77 16 81 20"/><path id="Path" fill-rule="nonzero" d="M77 20 81 16"/><path id="Rectangle" fill-rule="nonzero" d="M76 23H82V29H76z"/><path id="Rectangle" fill-rule="nonzero" d="M76 23H82V29H76z"/><path id="Path" d="M77 35 81 31"/><path id="Path" d="M77 35 81 31"/><path id="Rectangle" fill-rule="nonzero" d="M76 38H82V44H76z"/><path id="Rectangle" fill-rule="nonzero" d="M76 38H82V44H76z"/><path id="Rectangle" fill-rule="nonzero" d="M76 46H82V52H76z"/><path id="Rectangle" fill-rule="nonzero" d="M76 46H82V52H76z"/><path id="Rectangle" fill-rule="nonzero" d="M76 53H82V59H76z"/><path id="Rectangle" fill-rule="nonzero" d="M76 53H82V59H76z"/><path id="Path" d="M77 73 81 69"/><path id="Path" d="M77 73 81 69"/><path id="Path" fill-rule="nonzero" d="M77 77 81 81"/><path id="Path" fill-rule="nonzero" d="M77 81 81 77"/><path id="Path" fill-rule="nonzero" d="M77 77 81 81"/><path id="Path" fill-rule="nonzero" d="M77 81 81 77"/><circle id="Oval" cx="79.5" cy="86.5" r="1"/><circle id="Oval" cx="79.5" cy="86.5" r="1"/><path id="Path" fill-rule="nonzero" d="M77 107 81 111"/><path id="Path" fill-rule="nonzero" d="M77 111 81 107"/><path id="Path" fill-rule="nonzero" d="M77 107 81 111"/><path id="Path" fill-rule="nonzero" d="M77 111 81 107"/><circle id="Oval" cx="79.5" cy="116.5" r="1"/><circle id="Oval" cx="79.5" cy="116.5" r="1"/><path id="Path" d="M77 127 81 123"/><path id="Path" d="M77 127 81 123"/><path id="Path" fill-rule="nonzero" d="M77 130 81 134"/><path id="Path" fill-rule="nonzero" d="M77 134 81 130"/><path id="Path" fill-rule="nonzero" d="M77 130 81 134"/><path id="Path" fill-rule="nonzero" d="M77 134 81 130"/><path id="Path" fill-rule="nonzero" d="M77 138 81 142"/><path id="Path" fill-rule="nonzero" d="M77 142 81 138"/><path id="Path" fill-rule="nonzero" d="M77 138 81 142"/><path id="Path" fill-rule="nonzero" d="M77 142 81 138"/><path id="Path" fill-rule="nonzero" d="M77 145 81 149"/><path id="Path" fill-rule="nonzero" d="M77 149 81 145"/><path id="Path" fill-rule="nonzero" d="M77 145 81 149"/><path id="Path" fill-rule="nonzero" d="M77 149 81 145"/><path id="Rectangle" fill-rule="nonzero" d="M76 152H82V158H76z"/><path id="Rectangle" fill-rule="nonzero" d="M76 152H82V158H76z"/></g></g></svg>