<?xml version="1.0" encoding="UTF-8"?><svg width="280" height="190" viewBox="0 0 280 190" version="1.1" xmlns="http://www.w3.org/2000/svg" xmlns:xlink="http://www.w3.org/1999/xlink"><title>phyllotaxis-1</title><g id="phyllotaxis-1" stroke-width="1" fill-rule="evenodd"><path d="M0 0H280V190H0z"/><g id="layer-1" transform="translate(29 18)" stroke-linecap="round" stroke-width=".2"><path id="Path" d="M112.197521 76.9224439 107.625167 75.9776702 106.285224 74.6474664 109.876644 82.4933188 116.768541 71.0469854 122.421926 79.024448 122.436606 80.8472503 115.738227 68.4608435 105.727359 85.1725279 98.479123 74.1285459 98.9822688 71.8986918 107.763966 87.4211834 120.126406 66.9369846 128.687893 80.2324423 127.831077 82.7875617 117.367779 64.8472015 103.035462 88.2625491 93.3382269 73.208214 94.4739752 70.3917542 106.386654 90.2432837 122.448618 64.5144155 133.160153 80.9534786 131.786845 83.9767545 118.583603 62.6305084 100.960153 90.1549168 89.3224023 72.6516906 90.9052431 69.4704823 105.288275 91.9419963 124.342421 63.0836238 136.836988 81.3652307 135.063298 84.6583077 119.59123 61.4018325 99.2051478 91.1645556 85.9111535 72.3715487 87.8596759 69.0126666 104.351382 92.7288377 125.987989 62.4725761 140.0347 81.5194027 137.922021 84.9017867 120.469399 61.0380241 97.6516683 91.3929934 82.8909438 72.3386462 85.1584366 68.9750636 103.522593 92.6846542 127.464061 62.6135871 142.904099 81.4357362 140.488465 84.7391541 121.254147 61.4789185 96.2409914 90.8928744 80.1523356 72.5351215 82.708103 69.3341717 102.775214 91.8573896 128.81735 63.4624734 145.529266 81.1302124 142.837369 84.1892111 121.969495 62.6822125 94.9384175 89.7055617 77.6272641 72.9459336 80.4499523 70.069309 102.089228 90.2893473 130.074547 64.9788117 147.963584 80.6169323 145.015443 83.2735797 122.628789 64.6018423 93.7225929 87.8724186 75.2730219 73.5569813 78.3452812 71.1588541 101.453956 88.031291 131.254337 67.1155985 150.245758 79.9128174 147.053384 82.0176416 123.242707 67.1842239 92.5748332 85.4442091 73.0575786 74.3504032 76.3673975 72.5736645 100.861392 85.1396253 132.371401 69.8183095 152.399809 79.036669 148.976549 80.4514794 123.817922 70.3663722 91.485796 82.483918 70.9609152 75.3036376 74.4949476 74.2817778 100.303527 81.6867358 133.435081 73.0183192 154.445758 78.0110489 150.799619 78.6126959 124.359771 74.0702613 90.4448046 79.062991 68.9630124 76.3950628 72.7159199 76.2408908 99.7763584 77.7544089 134.454719 76.6394819 156.398284 76.8613392 152.538608 76.5435944 124.872259 78.2075242 89.4465205 75.2632144 67.0518589 77.5955365 71.0156339 78.4058797 99.2758818 73.4366519 135.432984 80.5943705 158.269399 75.616682 154.20286 74.2949389 125.360724 82.6785132 88.4856053 71.1776556 65.2167779 78.8768565 69.386082 80.7259808 98.799428 68.8378129 136.376549 84.7870978 160.069781 74.3071598 155.800381 71.9184334 125.825167 87.3769999 87.5580553 66.9031419 63.4497617 80.2070603 67.8179218 83.1447896 98.3443279 64.0688207 137.290753 89.1161357 161.806101 72.9656751 157.33918 69.4714224 126.270925 92.1882955 86.6585319 62.5468419 61.7428027 81.5523053 66.3071497 85.6040216 97.9092469 59.2462443 138.175596 93.4743159 163.485033 71.6251305 158.824595 67.0159507 126.696663 96.9920704 85.7857007 58.2149838 60.0905624 82.8796889 64.8457579 88.0416318 97.4915157 54.4913532 139.036416 97.7525898 165.111916 70.3193686 160.261964 64.611243 127.106387 101.667995 84.9355577 54.0175562 58.4877026 84.1544284 63.4324118 90.3965156 97.0897998 49.9244767 139.875882 101.840969 166.692088 69.082232 161.653956 62.3202842 127.500095 106.096681 84.108103 50.0645476 56.9302193 85.3445613 62.0591039 92.6075682 96.7027645 45.6640642 140.69266 105.633225 168.228217 67.9466234 163.007245 60.2041791 127.880458 110.158738 83.2993327 46.4584262 55.4141087 86.4181251 60.7258341 94.6155649 96.3304099 41.8266847 141.492088 109.02689 169.724309 66.942625 164.32183 58.3193319 128.246139 113.745118 82.5092469 43.2997796 53.9367016 87.3469176 59.4285987 96.3641014 95.9700667 38.5185664 142.274166 111.927956 171.184366 66.097499 165.603051 56.7202671 128.599809 116.751473 81.736511 40.6797951 52.4939943 88.1017965 58.1647283 97.8014736 95.621735 35.8365371 143.040229 114.248057 172.609724 65.4366275 166.850906 55.4568085 128.942803 119.085675 80.9771211 38.6783789 51.084652 88.6620802 56.9315539 98.8806778 95.2854147 33.8689635 143.791611 115.913867 174.004385 64.9816319 168.069399 54.5703193 129.273785 120.669699 80.2337464 37.3641563 49.7060057 89.0080272 55.7277407 99.5650512 94.9584366 32.6854112 144.528313 116.862401 175.368351 64.7484937 169.259867 54.0974624 129.595424 121.438679 79.5023832 36.7916517 48.3553861 89.1245963 54.5506196 99.8207512 94.6421354 32.3432245 145.253003 117.047596 176.70429 64.7503739 170.423642 54.0636198 129.907722 121.343731 78.7843661 37.0022281 47.0327931 89.0023868 53.3988561 99.6270961 94.3351764 32.8818865 145.965682 116.437488 178.014871 64.994793 171.562059 54.4885329 130.210677 120.356654 78.0783603 38.0165673 45.7342231 88.6366983 52.27245 98.9699848 94.036225 34.3201988 146.666349 115.016097 179.300095 65.4826911 172.677788 55.3787824 130.50429 118.466167 77.3816969 39.8421898 44.4610105 88.0275307 51.1673975 97.845657 93.7466158 36.6609815 147.356339 112.788123 180.562631 66.2112479 173.770829 56.7343682 130.789895 115.680729 76.6970448 42.4687548 43.2091516 87.1814647 50.0850334 96.2616334 93.4650143 39.8854331 148.036988 109.772368 181.803813 67.1720029 174.843851 58.5421293 131.067493 112.027604 76.0204004 45.8642998 41.9786463 86.108841 49.0226883 94.2348352 93.1914204 43.9550108 148.708294 106.006434 183.023642 68.351795 175.896854 60.7823242 131.338418 107.554735 75.3544328 49.9855815 40.7694948 84.8265809 47.9790276 91.7906444 92.9244995 48.81331 149.370257 101.545786 184.223451 69.7318227 176.929838 63.4211101 131.601335 102.328867 74.6964728 54.7686748 39.5790276 83.354426 46.9553861 88.966664 92.6642517 54.3851249 150.024214 96.4599889 185.404576 71.2895243 177.945472 66.4190041 131.857579 96.4336668 74.0465205 60.1355537 38.4059104 81.7186983 45.9477598 85.8080175 92.4120114 60.5792683 150.670162 90.8355299 186.568351 72.9966975 178.943756 69.7252422 132.10715 89.9687822 73.4045758 65.9931509 37.2514776 79.9476001 44.9588179 82.368289 92.1651096 67.2876319 151.309438 84.7711166 187.714776 74.82232 179.926025 73.2834199 132.350048 83.0479621 72.7693041 72.2371182 36.1130601 78.0749739 43.9845567 78.7085834 91.9248808 74.3889462 151.940705 78.3767375 188.843851 76.7334892 180.892278 77.0286722 132.587607 75.7990563 72.14204 78.7527668 34.9919924 76.1356025 43.0263108 74.8956458 91.6913251 81.7516009 152.563966 71.7708419 189.959581 78.6926021 181.842517 80.8904937 132.819828 68.3574354 71.521449 85.4160069 33.8842707 74.1661488 42.0827455 71.0018618 91.4617731 89.235525 153.181888 65.0822198 191.05796 80.6629959 182.779409 84.7964985 133.045377 60.8678709 70.9061964 92.0971084 32.7925643 72.2060958 41.1538608 67.1033775 91.2388942 96.6940672 153.793136 58.4406014 192.144328 82.6042474 183.701621 88.6686608 133.265586 53.477014 70.2976168 98.665401 31.714204 70.2930465 40.2383222 63.2772789 91.0213537 103.979636 154.399047 51.9804172 193.214681 84.4778137 184.610486 92.4298943 133.480458 46.3352766 69.6957102 104.986454 30.6491897 68.467424 39.334795 59.601592 90.8091516 110.940879 154.998284 45.8313972 194.273022 86.2460917 185.506006 96.0012331 133.68999 39.58931 69.099142 110.929598 29.5975214 66.7658912 38.4459485 56.1534029 90.6009533 117.434906 155.592183 40.1251518 195.319352 87.8724186 186.389514 99.3065311 133.89552 33.3829456 68.5079123 116.368863 28.5578646 65.2241709 37.5677788 53.0069773 90.399428 123.319765 156.182078 34.9820104 196.352336 89.3220118 187.26101 102.275283 134.09571 27.8515539 67.9206864 121.186739 27.5302193 63.8751656 36.7016206 50.2328208 90.200572 128.467607 156.7653 30.5166619 197.373308 90.5629086 188.12183 104.839803 134.290562 23.1182844 67.3401335 125.274178 26.5145853 62.7489577 35.8474738 47.8939182 90.0083889 132.758102 157.344519 26.8306342 198.383603 91.567847 188.970639 106.938987 134.481411 19.295006 66.7622498 128.536233 25.5096282 61.8709291 35.0053384 46.0485542 89.8188751 136.088782 157.918398 24.0141744 199.383222 92.3133252 189.807436 108.51925 134.668255 16.4776061 66.1910391 130.890176 24.5166826 61.2617616 34.1725453 44.7427923 89.6346997 138.3741 158.488275 22.138728 200.372164 92.7814818 190.63489 109.53923 134.851096 14.7431707 65.6224976 132.272084 23.5330791 60.9383764 33.350429 44.0170556 89.4545281 139.544492 159.054147 21.2606994 201.350429 92.9572755 191.453003 109.964143 135.028599 14.1481043 65.0592946 132.635892 22.5601525 60.9111142 32.5376549 43.8995464 89.2783603 139.554833 159.616015 21.4186318 202.318017 92.835066 192.260439 109.771428 135.203432 14.7290696 64.5000953 131.953399 21.5965682 61.1846756 31.7355577 44.4043658 89.1061964 138.379741 160.172545 22.6275661 203.276263 92.4101528 193.057197 108.951684 135.372927 16.4992278 63.9448999 130.217084 20.642326 61.7581203 30.9414681 45.5390344 88.9380362 136.017336 160.726406 24.8875025 204.226501 91.6891165 193.845949 107.504911 135.539752 19.448238 63.3937083 127.441047 19.6974261 62.6258081 30.1580553 47.2941514 88.7738799 132.488301 161.276263 28.1721189 205.166063 90.6794777 194.625357 105.44709 135.702574 23.5450777 62.8451859 123.659132 18.7618684 63.7736377 29.3826501 49.6490352 88.6123928 127.838698 161.822116 32.4391119 206.097617 89.3981577 195.396759 102.802664 135.861392 28.7305225 62.3006673 118.923982 17.8343184 65.1837477 28.6165872 52.5726634 88.456244 122.135273 162.3653 37.6236166 207.021163 87.864898 196.158818 99.6101748 136.016206 34.9284262 61.7601525 113.310804 16.9161106 66.8326364 27.8585319 56.0208525 88.3014299 115.468273 162.90448 43.6419663 207.935367 86.1069608 196.911535 95.9213268 136.168351 42.0391412 61.222307 106.910785 16.0045758 68.6921016 27.1098189 59.9371982 88.1519542 107.945805 163.439657 50.3954535 208.842898 84.1544284 197.657579 91.7934647 136.316492 49.941398 60.6884652 99.8339122 15.1023832 70.7283005 26.3677788 64.2568354 88.0051478 99.6966615 163.973499 57.7665688 209.741087 82.0430236 198.395615 87.2999139 136.461964 58.5007661 60.1572927 92.2023966 14.2068637 72.9055104 25.6337464 68.9054982 87.8623451 90.8665523 164.503337 65.6237021 210.632602 79.8103494 199.125643 82.5168206 136.603432 67.5630734 59.6287893 84.1534883 13.3193518 75.1842483 24.9077216 73.8004603 87.7222116 81.6115299 165.029171 73.8267823 211.517445 77.4968288 199.847664 77.5316115 136.742231 76.9666274 59.1029552 75.833839 12.4385129 77.5203306 24.1883699 78.8533547 87.5847474 72.1036278 165.55367 82.2244578 212.392946 75.1475854 200.563012 72.4354737 136.87836 86.5365743 58.5811249 67.3985606 11.5656816 79.8723942 23.4770257 83.970174 87.4512869 62.5167596 166.074166 90.6587961 213.263108 72.8049226 201.271687 67.3233547 137.010486 96.0933603 58.0606292 59.0046454 10.6995234 82.1943754 22.7723546 89.0540908 87.3204957 53.0351795 166.593327 98.9718649 214.125262 70.5149038 201.972355 62.292082 137.139943 105.454611 57.5441373 50.812846 9.84003813 84.4420909 22.0743565 94.0073375 87.1923737 43.8393817 167.108484 107.001972 214.982078 68.3198325 202.667684 57.4394233 137.265396 114.439832 57.02898 42.9829749 8.98722593 86.5732372 21.3830315 98.7349665 87.0669209 35.1089203 167.622307 114.593064 215.832221 66.262952 203.355005 52.8612659 137.389514 122.87229 56.5164919 35.668264 8.14108675 88.5455111 20.6983794 103.14015 86.9454719 27.0177088 168.13346 121.594731 216.674357 64.3856254 204.036988 48.6506773 137.509628 130.580892 56.0080076 29.0153647 7.30028599 90.3194296 20.0204004 107.135462 86.8253575 19.7293199 168.641945 127.86502 217.512488 62.7235757 204.710963 44.8922639 137.627073 137.410525 55.500858 23.1596477 6.46749285 91.8611499 19.3490944 110.636295 86.7092469 13.3960456 169.14776 133.275142 218.342612 61.3097053 205.3796 41.6678123 137.743184 143.215478 54.9950429 18.2233224 5.63870353 93.1387097 18.6831268 113.567444 86.5958055 8.15043616 169.650906 137.710409 219.167398 60.1750368 206.042898 39.0459476 137.855291 147.871662 54.4932316 14.3144973 4.81658723 94.1257867 18.0238322 115.864043 86.4850334 4.11000079 170.152717 141.072111 219.986845 59.3411917 206.699523 37.0887148 137.964728 151.271907 53.992755 11.5196591 4.00114395 94.8007594 17.3698761 117.470629 86.3769304 1.36968691 170.651859 143.283164 220.800953 58.8279116 207.349476 35.8431176 138.071497 153.334428 53.493613 9.90649322 3.18970448 95.1495266 16.7225929 118.344897 86.2701621 0 171.149666 144.285282 221.608389 58.6474175 207.995424 35.3458188 138.17693 154 52.9984747 9.52388336 2.38493804 95.1617476 16.0793136 118.459586 86.1673975.0479437421 171.644805 144.043683 222.411821 58.8044098 208.6347 35.6193802 138.27836 153.23478 52.5033365 10.3925112 1.58417541 94.834602 15.4427073 117.797774 86.0659676 1.5323196 172.137274 142.547086 223.20858 59.2998285 209.268637 36.6694421 138.378456 151.033128 52.0108675 12.5142568.790085796 94.1727904 14.8114395 116.360402 85.9685415 4.44560699 172.628408 139.805832 224 60.126153 209.895901 38.4903642 138.474547 147.416666 51.5210677 15.8656183 0 93.1847733 14.1868446 114.161571 85.87245 8.75396326 173.118208 135.857524"/></g></g></svg>