<?xml version="1.0" encoding="UTF-8"?>
<svg width="1120px" height="760px" viewBox="0 0 1120 760" version="1.1" xmlns="http://www.w3.org/2000/svg" xmlns:xlink="http://www.w3.org/1999/xlink">
    <title>circlish-starwars--3x</title>
    <g id="circlish-starwars" stroke="none" stroke-width="1" fill="none" fill-rule="evenodd">
        <g id="layer-1" transform="translate(315.000000, 182.000000)" stroke="#000000" stroke-width="0.25">
            <path d="M402,392.837399 L317.848328,308.345121 M341.655042,436.856718 L287.625535,330.391153 M196.125963,460 L214.742253,341.97997 M21,332.248193 L127.036379,278" id="Shape"></path>
            <path d="M342,432.270519 L286.886643,328.575289 M128.504922,436 L179.964644,330.441033 M0,265.39278 L115.60891,245" id="Shape"></path>
            <path d="M445,323.738644 L339.921044,274.727143 M404.365576,384 L319.571824,304.906846 M31.359888,338.188163 L132.763901,281.962908 M24,127.37247 L129.078956,176.383972 M332.65718,15 L283.658611,120.10669" id="Shape"></path>
            <path d="M445,318.605413 L339.921402,271.894847 M80.3181671,396 L157.282787,310.65519 M24,131.45891 L129.078598,178.169476 M63.2641448,71.0916526 L148.742745,147.935808 M186.593574,0 L210.507695,112.331937 M434.050303,110.002113 L334.438535,167.423064" id="Shape"></path>
            <path d="M405,373.451007 L319.148392,298.599035 M83.5105704,396 L158.139327,309.891609 M37.681925,341.21836 L135.188957,282.455594 M6,203.580316 L119.32196,213.523085 M382.51825,51 L307.889493,137.108391" id="Shape"></path>
            <path d="M442,310.293977 L337.972898,268.0089 M287.980434,445 L260.838418,335.470309 M149.411306,435.252251 L191.439133,330.588405 M43,345.416787 L138.148686,285.597404 M114.502173,33.8099953 L173.957632,129.541081 M249.284506,0 L241.459529,112.606977 M378.079396,52.3540039 L305.960722,138.827137" id="Shape"></path>
            <path d="M442,308.310375 L338.210001,268.063401 M355.377866,416.370605 L294.828041,322.181268 M291.722768,445 L262.948572,336.520173 M61,86.0997118 L147.398475,156.777522 M112.78317,39 L173.332994,133.189337" id="Shape"></path>
            <line x1="100" y1="400" x2="167" y2="312" id="Path"></line>
            <path d="M442,297.737098 L338.401179,262.10998 M360.361534,405.936046 L297.514675,316.2997 M298.637191,436 L266.602302,331.356745 M102.367516,401.437784 L168.306818,314.045555 M15,222.542118 L124.552777,224.453328 M26.9259832,155 L130.524805,190.627119" id="Shape"></path>
            <path d="M409,354 L321.193888,290.246312 M233.151724,9 L233.151724,117.464198" id="Shape"></path>
            <path d="M408,347.555764 L320.328451,285.878419 M169.685568,430 L200.976107,327.168902 M18,227.760078 L125.010243,225.88205 M27.3361283,161.019697 L129.685311,192.45757 M295.055862,18 L263.765323,120.831098" id="Shape"></path>
            <path d="M66.0577303,357 L149.904621,291.350262 M33.7240506,298.546657 L133.713664,262.075252 M21,232.939215 L127.340585,229.219164 M29.1276356,166.604681 L131.410432,195.996509 M102.794884,57.1542104 L168.30435,141.180639 M226.590591,12 L230.302694,118.568287 M402,93.9700278 L318.153109,159.619766" id="Shape"></path>
            <path d="M245,436 L239.487906,331.34178 M57,112 L145.334178,169.078849" id="Shape"></path>
            <path d="M412,335.155401 L323.644565,279.807212 M249.55892,433 L242.290503,328.811031 M58,113.404367 L146.355435,168.752556 M100.841493,64 L167.811319,144.009109" id="Shape"></path>
            <path d="M436,273.611721 L335.892513,250.317996 M46,308 L140.573515,267.540355 M155.037441,36 L195.181235,131.317618 M341.462485,49.1384996 L288.546756,137.896946" id="Shape"></path>
            <path d="M412,326.642904 L323.346078,275.731925 M317.81263,411 L276.17389,317.977546 M131.863428,401.305531 L183.047315,313.124305 M82,361.144161 L158.075343,293.010584 M336.937143,48 L285.753256,136.181226" id="Shape"></path>
            <path d="M436,199.797768 L335.86276,212 M37,185.970826 L136.037139,205.075591 M58.6273033,127 L146.867823,175.542451" id="Shape"></path>
            <path d="M430,197.172832 L331.639404,211.063389 M320.183264,404.7102 L276.640368,315.001274 M260.6488,423 L246.82531,324.162193 M198.404238,421.906697 L215.651218,323.615542 M37,190.280617 L134.816584,207.611274 M205.263176,27 L219.086666,125.837807" id="Shape"></path>
            <path d="M372,360 L301.833576,292.665815 M39,258.831066 L135.061033,242" id="Shape"></path>
            <line x1="376" y1="360" x2="303" y2="293" id="Path"></line>
            <path d="M427,245.58722 L330.993345,235.486169 M331.364323,393 L283.096875,309.313651 M58,146.615085 L146.189909,185.919374 M194.461389,36 L214.532502,130.522022" id="Shape"></path>
            <path d="M424,243.694415 L329.016148,235.428709 M332.097662,390 L282.990556,308.701556 M70,324.99486 L151.726502,276.144962 M135.34741,64.2699831 L184.454515,145.568427 M190.756333,42 L212.204234,134.415428 M308.354717,52.2345879 L271.098969,139.541726" id="Shape"></path>
            <path d="M415,177.728603 L324.433639,201.73084 M76.0441531,327 L154.679229,276.488306 M52.1412211,273.897246 L142.707582,249.89501 M46,216.089464 L139.631926,220.944208 M131.270743,70 L182.337933,147.779704" id="Shape"></path>
            <path d="M406,288.657208 L319.386748,257.137279 M377.992624,339.178057 L305.361016,282.439781 M169.340074,399 L200.864404,312.398841 M118.81217,370.996534 L175.558369,298.375068 M55,276.402686 L143.601183,251" id="Shape"></path>
            <path d="M173.593942,399 L203,312.371791 M88,115 L160.133605,170.138383" id="Shape"></path>
            <line x1="290" y1="54" x2="260" y2="139" id="Path"></line>
            <line x1="236.05" y1="406" x2="235.95" y2="315" id="Path"></line>
            <line x1="333" y1="78" x2="282" y2="151" id="Path"></line>
            <path d="M139.698748,372 L186.826992,298.299039 M61,233.568848 L147.414311,228.969947 M171.98937,60 L203,142.042874" id="Shape"></path>
            <path d="M221,51 L226.979623,137.927736 M274.533468,55.761234 L253.790907,140.312378 M324,77.1002556 L278.564764,151" id="Shape"></path>
            <path d="M348,355.453835 L291.498652,290.590951 M302.224366,384 L268.572665,304.887088 M76,292.788197 L155.276665,259.206007 M167.400598,67.0311167 L201.052299,146.144029 M219.77559,54 L227.280978,139.618446 M323.669766,77.937159 L279.31445,151.605069" id="Shape"></path>
            <path d="M300,378 L265.516753,300.068242 M146,369.877586 L188.389903,296" id="Shape"></path>
            <line x1="388" y1="151" x2="309" y2="187" id="Path"></line>
            <line x1="397" y1="203" x2="315" y2="215" id="Path"></line>
            <path d="M85,300 L159.735178,262.903003 M85,151.365957 L159.735178,188.462954 M261,64 L247.878774,144.708539" id="Shape"></path>
            <path d="M70,251 L151.03498,236.933581 M113.759979,110.087431 L172.950291,166.361054 M203.712057,63 L218,142.77859" id="Shape"></path>
            <path d="M394,248 L313.880998,237.83216 M73,207.262493 L153.119002,217.430333 M86.9438262,157 L160.102915,192.257746" id="Shape"></path>
            <path d="M372.453953,145.398703 L303.333263,185.474218 M390.381308,192.298228 L312.311922,208.961089 M393,242.463329 L313.624264,234.08476 M127,345 L180.406539,285.437343 M299.018713,79 L266.555719,152.220707" id="Shape"></path>
            <path d="M369,141.722914 L300.424815,182.427767 M352.579735,327.13238 L292.199515,275.28334 M169,369 L200.260997,296.251114 M195.570937,69 L213.56669,146.006373" id="Shape"></path>
            <path d="M388,185.390947 L311.624616,204.310972 M355.792859,324 L295.494916,273.728332 M82,261.194864 L158.375384,242.274839 M196.853511,71.2736809 L215.895602,147.159476 M246.000355,67 L240.509222,145.018642" id="Shape"></path>
            <path d="M177.044577,369 L204.73759,296.369396 M88,167.646975 L160.142551,195.527335 M288,78 L260.306987,150.630604" id="Shape"></path>
            <path d="M321,354 L277.769577,290.399193 M106,312.52886 L170.093336,269.630645 M239.800202,73 L237.103211,149.670342" id="Shape"></path>
            <path d="M376,275.624584 L304.117041,250.950211 M319.354331,350.565192 L275.749191,288.481347 M229.341077,378 L230.669538,302.221689 M182.416784,369.750609 L207.167378,298.089015 M88,176.763537 L159.882959,201.437911 M187.472539,81 L209.700257,153.477358" id="Shape"></path>
            <path d="M388,225.264005 L312.011841,225.264005 M325.250534,348.821803 L280.585599,287.118187 M235.825762,378 L235.825762,301.731614 M91,272.427718 L163.269448,248.859309 M91,178 L163.269448,201.568409" id="Shape"></path>
            <line x1="354" y1="312" x2="293" y2="270" id="Path"></line>
            <path d="M381,221.837091 L307.93381,224.41454 M284.719907,366 L259.715439,296.613151 M97,277.591698 L165.70181,252.337905 M113.206306,144.283314 L173.817852,185.574567 M184.535469,88 L209.539937,157.386849" id="Shape"></path>
            <path d="M369,172 L300.503033,198.365542 M324.280085,339.355988 L278.106894,282.180594 M239.473455,372 L235.634232,298.528802 M193.738458,367.17878 L212.729547,296.114161 M117.555004,317.569799 L174.574503,271.270367 M85,232.531302 L158.27087,228.681582" id="Shape"></path>
            <path d="M379,214.988666 L306.369882,220.017854 M375.022752,260 L304.377228,242.560427 M88,235.137337 L160.630118,230.108149 M223.325175,81 L228.404528,152.912803 M268.785488,84.9379681 L251.171959,154.885777" id="Shape"></path>
            <path d="M375,257.848144 L305.49617,241.663929 M358.251128,299.656027 L297.107776,262.602056 M248.217022,369 L242,297.331355 M267.90891,85 L251.861895,155.098084" id="Shape"></path>
            <path d="M363,168.894589 L298.107302,197.872661 M103,285 L167.892698,256.021927 M218.126124,85 L225.551028,155.85697 M262.5873,87.3355462 L247.817718,157.027761" id="Shape"></path>
            <path d="M338.348083,130.192473 L286.912029,178.134637 M363,166.719454 L299.25604,196.426195 M252.475568,366 L243.904564,296.229857 M208.421048,364.462338 L221.842201,295.460024 M132.262872,322.269866 L183.698926,274.327701 M97,199.361184 L166.039408,212.775126 M112.075981,157.960597 L173.589434,192.039749 M262.189907,88 L248.768754,157.002315" id="Shape"></path>
            <path d="M372,250.7977 L303.361433,238.617883 M109.010645,288 L171.651921,257.248335 M97,201.993553 L165.638567,214.173371 M111.22123,160.4201 L172.760225,193.35431 M258.744155,88 L246.64316,157.085655" id="Shape"></path>
            <path d="M357,161.488323 L295.445599,192.692158 M357,286.511677 L295.445599,255.307842 M255.340756,360 L244.533556,292.112007 M135.830333,321.365727 L184.679842,272.762868 M110.380343,286.511677 L171.934744,255.307842 M97,245.541267 L165.232511,234.788635 M110.380343,161.488323 L171.934744,192.692158 M135.830333,126.634273 L184.679842,175.237132 M255.340756,88 L244.533556,155.887993" id="Shape"></path>
            <path d="M326.13651,127 L278.493845,175.854118 M352.00595,160.996062 L291.449731,192.880097 M366,201.244366 L298.458851,213.038185 M295.197201,345 L263,285.032782" id="Shape"></path>
            <path d="M215.81699,357 L224,290.395396 M167,106 L199.55064,164.691185" id="Shape"></path>
            <path d="M324.078787,125.380615 L279.089622,174.827764 M357,278.652809 L295.57745,251.588576 M219.874993,357 L226.90203,290.827024 M100,210.504341 L166.866739,217.45847 M133.858823,135.2461 L183.82438,179.768488 M166.606628,109 L200.225504,166.624486" id="Shape"></path>
            <line x1="203" y1="97" x2="218" y2="164" id="Path"></line>
            <path d="M318,124 L275.819274,173.919247 M149,324 L191.180726,274.080753" id="Shape"></path>
            <path d="M303,333 L267.765513,278.589231 M103,217.198403 L167.602557,220.593186 M161.834115,115 L197.068601,169.410769" id="Shape"></path>
            <path d="M363,230.090451 L298.440371,227.850452 M154,327 L193.769957,276.382433 M238.186466,97 L235.933776,161.195933" id="Shape"></path>
            <line x1="112" y1="185" x2="173" y2="203" id="Path"></line>
            <path d="M336,151 L285.33279,187.939945 M133,299 L183.66721,262.060055" id="Shape"></path>
            <path d="M305.58479,124 L270.120604,175.02905 M336,297.804235 L285.353076,262.072475 M236.703462,351 L235.623244,288.714453 M198.328854,345.566175 L216.40411,285.99253 M160,126.55957 L197.210837,176.309837" id="Shape"></path>
            <path d="M330,151 L281.732489,188.808434 M275.274525,342.345446 L254.323965,284.637836 M199.483027,345 L216.366503,285.967109 M164.688853,328.733372 L198.941545,277.819823 M118,268.81829 L175.5583,247.813383" id="Shape"></path>
            <path d="M351,257 L292.097094,241.288993 M115,194.052348 L173.902906,209.763355 M156.121728,131.022992 L194.496802,178.197862 M189.221706,112 L211.074818,168.670423" id="Shape"></path>
            <path d="M336,291.231489 L284.332704,258.934811 M310.94821,320.062033 L271.786607,273.373326 M202.968937,345 L217.709086,285.86353 M139,305.013156 L185.67108,265.836761 M154.043196,133 L193.2048,179.688708" id="Shape"></path>
            <path d="M115,236 L174.687481,230.563776 M117.619016,197 L176,211.031392" id="Shape"></path>
            <line x1="315" y1="312" x2="273" y2="270" id="Path"></line>
            <path d="M282,333 L257.203685,279.629772 M218,109 L225.150547,167.447645" id="Shape"></path>
            <path d="M290,122.823859 L262.595149,173.586286 M130,275 L182.46417,249.797402 M131.851843,170.444643 L183.393114,197.435378 M183.840457,121 L209.429737,172.671379" id="Shape"></path>
            <path d="M336,276.987446 L285.101016,251.051912 M285.987446,327 L260.051912,276.101016 M182.077984,327 L208.013518,276.101016 M121,242.934608 L177.424726,233.998601 M132.065429,173.077984 L182.964413,199.013518 M216.130822,112 L225.066828,168.424726" id="Shape"></path>
            <path d="M336,170.794729 L285.111957,197.317114 M254.105736,335.383154 L244.095805,279.74564 M217.985944,336 L226.008504,280.056053 M183.441432,325.646937 L208.706813,274.870567 M151,145.309042 L192.460722,184.554373 M179.850362,124 L206.908233,173.880948" id="Shape"></path>
            <path d="M281.234521,126.371882 L257.347643,176.658444 M336,274.08693 L284.775627,250.637371 M134.352039,281 L183.786756,254.099828 M121,213.564998 L177.098672,220.326067 M130.764684,180.134719 L181.989057,203.584278 M211.777778,118 L222.561962,172.465594" id="Shape"></path>
            <path d="M288,321 L260.247863,273.730139 M158,307.563261 L195.141147,267" id="Shape"></path>
            <path d="M336,267.199443 L285.079802,245.548197 M139,281 L186.418154,252.459539 M150.355537,151 L192.104959,187.352932" id="Shape"></path>
            <path d="M342,233.724944 L287.229157,230 M334.259285,266.344647 L283.351753,246.335311 M316.535161,295.039644 L274.475599,260.706311 M290.562999,317.00154 L261.468379,271.706843 M258.88747,330.083889 L245.604443,278.25781 M224.604859,333 L228.433947,279.718803 M139,282.961972 L185.561055,254.658662" id="Shape"></path>
            <line x1="324" y1="167" x2="279" y2="197" id="Path"></line>
            <path d="M268.290166,124 L249.92421,174.227312 M339,228.357949 L285.338385,226.492272 M165.275693,309 L198.333611,266.879286 M142.325781,284.498238 L186.839571,254.607408 M124,220.883242 L177.661615,222.748919 M171.350138,135.84995 L201.376859,180.162285" id="Shape"></path>
            <path d="M336,194 L284.131364,209.545298 M263.858201,327 L248,276.1548" id="Shape"></path>
            <path d="M127,223.850347 L178.473385,223.850347 M132.047335,194 L181,208.872391" id="Shape"></path>
            <path d="M316.51279,164 L274.82583,195.135846 M333,256.675471 L283.08151,241.549382 M234.825427,330 L233.91372,278.270491 M149.48721,288.746849 L191.17417,257.611002 M133,196.071378 L182.91849,211.197467" id="Shape"></path>
            <path d="M296,306 L263.876966,265.414038 M145,167 L188.254034,195.801711" id="Shape"></path>
            <path d="M330,252.668846 L280.754926,239.375962 M317.001819,282.077254 L274.244805,254.103402 M295.620304,306 L263.537,266.08498 M136,262.910771 L183.594479,244.506017 M145.69298,170 L188.449995,197.973852" id="Shape"></path>
            <path d="M156.00905,291 L194,258.712763 M140,264.015798 L185.981681,245.198708 M147.862643,173 L189.918914,199.616962" id="Shape"></path>
            <path d="M327,184.80619 L281.241006,204.530305 M320.693024,276.402262 L278.08253,250.403306 M184.042548,311 L209.645558,267.730541 M170,148 L202.612312,186.096818" id="Shape"></path>
            <path d="M282.222309,137.675405 L257.462316,180.208053 M299,296 L265.864211,259.500776 M142,262.899803 L187.235723,242.923796 M166.244035,149.764155 L199.379824,186.26338 M192.274852,133 L212.415309,177.866368" id="Shape"></path>
            <path d="M278,139 L254.564279,181.807141 M212.576352,321 L221.799007,272.955464 M143.292609,266.190745 L187.101709,245.507742 M136,206.04588 L183.449466,215.384199" id="Shape"></path>
            <path d="M250.008424,130 L241.519382,177.539828 M303.460871,158.058223 L268.289092,191.591904 M321.039681,182.843553 L277.091645,204.004537 M330,211.776412 L281.579894,218.495928 M319.48629,270.636577 L276.314949,247.971939 M246.632629,321 L239.826428,273.196583 M187.013137,310.620195 L209.970161,267.998693 M136,238.694414 L184.420106,231.974898 M190.061263,138.317024 L211.495235,181.705329" id="Shape"></path>
            <path d="M248,130 L240.320841,177.338253 M145,181.241386 L188.736748,203" id="Shape"></path>
            <line x1="167" y1="161" x2="200" y2="191" id="Path"></line>
            <path d="M272,139 L252.329076,181.543968 M169,293 L200.743748,258.669045" id="Shape"></path>
            <path d="M278,307.721966 L254.78635,268.095575 M250.833772,318 L241.181244,273.242474 M150.951701,274.170571 L191.157238,251.291305 M139,218.754708 L185.173391,223.539038 M146.531291,191.053673 L188.944035,209.664875 M162.37959,167 L196.881179,197.619319" id="Shape"></path>
            <path d="M327,233.973964 L280.581559,230 M255.009056,315 L244.526296,270.58044 M154,273.051278 L193.938668,249.570385" id="Shape"></path>
            <path d="M257,315.4904 L245.795675,270.903102 M228.083644,318 L231.313078,272.160931 M142,219.75006 L188.201051,222.954192 M163.480721,167 L198.959726,196.535753" id="Shape"></path>
            <path d="M237.768436,136 L235.388255,181.425304 M324,231.768436 L278.574696,229.388255 M282.630491,303.424173 L257.855622,265.274669 M228.231564,318 L230.611745,272.574696 M144.979768,250.585788 L188.917206,238.812073 M142,222.231564 L187.425304,224.611745" id="Shape"></path>
            <path d="M237.562296,136 L236,180.790639 M289.609426,154.977858 L262.065681,190.293632 M324,228.860112 L279.289045,227.295031 M305.055904,281 L269.802958,253.407166" id="Shape"></path>
            <path d="M286.663836,155 L259.937094,188.870266 M306,174.121519 L269.620259,198.447349 M149,195.192254 L190.992558,209" id="Shape"></path>
            <path d="M283.431655,154 L257.481888,189.442892 M303,276.583355 L267.280197,250.834759 M283.431655,296 L257.481888,260.557108 M143,225.050875 L187.148933,225.050875" id="Shape"></path>
            <path d="M236,312 L235.220178,268.409292 M183.130959,296.218234 L208.743366,260.505316 M163,277.235801 L198.659319,251" id="Shape"></path>
            <path d="M229.84756,139 L231.380195,182.179429 M263,306.832179 L247.983051,266.233636 M235.986294,312 L234.453659,268.820571 M160,177.100326 L196.398019,201.259837" id="Shape"></path>
            <path d="M312,192.835418 L272.685223,208.142539 M286.332741,290 L259.831742,256.804366 M149,227.978169 L191.052221,225.743111 M180.154058,157 L206.655057,190.195634" id="Shape"></path>
            <path d="M312.148403,194 L273.667388,209.752658 M318,219.680418 L276.598126,222.613892 M191,297 L212.993387,261.337759" id="Shape"></path>
            <path d="M311.640315,194 L273.024196,210.0992 M318,219.056411 L276.210092,222.647222 M289.415719,288.542173 L261.894748,257.447572 M191,297 L212.607191,261.68243" id="Shape"></path>
            <path d="M224.330608,142 L228.668956,182.683423 M294.827255,168.666512 L263.976778,196.03854 M309,190.167853 L271.074244,206.808091 M241.716271,305 L237.377923,264.316577 M161,182.526421 L196.95323,202.980419" id="Shape"></path>
            <path d="M247.162455,145 L239.422797,184.934119 M266,298.86105 L248.8565,261.991415 M216.152069,305 L223.891726,265.065881 M151,234.932122 L191.262939,229.975045 M151.887831,209.44999 L191.706855,217.212018" id="Shape"></path>
            <path d="M308.013065,191 L271.566834,208.57399 M315,240.154706 L275.064322,233.193077 M176.565829,282 L205.735678,254.149509 M155,212.260494 L194.935678,219.222123" id="Shape"></path>
            <path d="M220.731735,145 L227,184.328202 M161.761091,260 L197.466522,241.922904 M154,211.307276 L193.579957,217.53567" id="Shape"></path>
            <path d="M244.347032,148 L238.824177,187.185958 M303.468875,189.283347 L268.433263,207.861654 M312,237.533309 L272.705849,232.02566 M222.219488,305 L227.742343,265.814042 M178.064743,283.523774 L205.628848,255.058918 M155,240.265118 L194.077411,233.394567" id="Shape"></path>
            <line x1="248" y1="302" x2="242" y2="263" id="Path"></line>
            <path d="M240.248751,148 L236.200799,186.690623 M303,257.206205 L267.629371,241.383059 M270.924076,293 L251.563437,259.310069 M155,217.361268 L193.507493,221.428471" id="Shape"></path>
            <path d="M216.450532,148 L224.961462,185.6875 M307.345535,206.068548 L270.483898,214.770161 M309,230.254032 L271.312116,226.883065 M290.698344,274.334677 L262.146499,248.959677 M250.549468,299 L242.038538,261.3125 M158,216.745968 L195.687884,220.116935" id="Shape"></path>
            <path d="M216.364849,151 L225.593418,188.014696 M309,206.660623 L271.985304,215.889192 M305.704226,253.773522 L270.336413,239.483801 M206.226478,296 L220.516199,260.632187 M164,196.522252 L199.367813,210.811973" id="Shape"></path>
            <path d="M207.160371,296 L221,260.033024 M170,265.983126 L202.391059,245" id="Shape"></path>
            <path d="M257.458257,154 L245,188.683201 M290,269 L261.297287,246.276387" id="Shape"></path>
            <path d="M256.847344,154 L245,189.780287 M302.826886,203.513347 L268.027288,214.577002 M306,227 L269.616806,226.340862" id="Shape"></path>
            <path d="M255.81118,154 L244.473959,188.55265 M303,245.708292 L268.107581,234.481468 M255.81118,292.437604 L244.473959,257.884955 M233.152174,296 L233.152174,259.669139" id="Shape"></path>
            <path d="M232.232639,151 L232.865315,187.077262 M303,244.405351 L268.307242,233.855848 M277.237017,281 L255.404661,252.184136 M164,202.139419 L198.692758,212.688922" id="Shape"></path>
            <path d="M303,224 L267.557514,225.229934 M192.271732,285 L212.104134,255.77921 M176.017095,269.933307 L203.962933,248.234038 M161,228.927621 L196.442486,227.697686" id="Shape"></path>
            <path d="M229.010368,154 L230.867267,189.270266 M288,180.130483 L260.411213,202.358452 M194,284 L213.335012,254.378004" id="Shape"></path>
            <path d="M226.62898,154 L229.088246,188.692454 M248.651687,155.901011 L240.118718,189.644943 M269,164.417856 L250.309981,193.909319 M236.486169,293 L234.026903,258.307546 M177.431585,268.282892 L204.449298,245.927164 M166.044901,249.598218 L198.747907,236.570937 M163,206.644901 L197.222437,215.05856" id="Shape"></path>
            <path d="M207.18475,163 L220.874085,194.697406 M299.219732,199.545992 L266.968313,213.000172 M303,242.018253 L268.860466,234.272027 M262.034982,290 L248.345647,258.302594 M181.637651,271.756774 L208.079333,249.165104 M170,253.454008 L202.25142,239.999828 M174.444642,190.970167 L204.478789,208.705313" id="Shape"></path>
            <path d="M200.509863,285 L218,255.614315 M183.469811,271.614856 L209.466736,248.90989 M167,212 L201.218593,219.054066" id="Shape"></path>
            <line x1="173" y1="254" x2="203" y2="239" id="Path"></line>
            <path d="M223.667776,160 L228.405349,193.287936 M245,160.367381 L239.08966,193.471627 M221.318198,293 L227.228539,259.895755 M171.865856,256.201976 L202.462938,241.466793 M166,214.991383 L199.524955,220.827554" id="Shape"></path>
            <line x1="245" y1="290" x2="239" y2="260" id="Path"></line>
            <path d="M204.18492,166 L219.566645,195.189948 M300,233.69247 L267.552623,229.092283 M282.217487,270.481942 L258.646473,247.517073 M206.226285,284 L220.589314,254.287121 M170.357437,235.976535 L202.626096,230.236319 M170,215.259666 L202.447377,219.859852 M176.004949,195.444401 L205.453823,209.936192" id="Shape"></path>
            <path d="M239.774019,160 L235.800863,191.858843 M259.414304,165.545282 L245.636969,194.637379 M291,251 L261.45576,237.433513 M167,215.987303 L199.353986,219.899655 M172.631465,196.647592 L202.175706,210.214079" id="Shape"></path>
            <path d="M291,194 L263.044909,210.199389 M228.241758,291 L231.614891,258.777521 M191.732081,274.684415 L213.330114,250.607708 M179,258.901731 L206.955091,242.702342" id="Shape"></path>
            <path d="M219.251771,163 L226.402083,193.69709 M295.610434,210.297132 L264.642952,217.385012 M297,229.994432 L265.33972,227.249403 M179,257 L206.243443,240.773833" id="Shape"></path>
            <path d="M275,176 L254.701503,200.665881 M249.640826,288 L242,256.758312" id="Shape"></path>
            <path d="M197.580219,171.999114 L214.763202,198.456333 M254.647747,166 L243.343206,195.452755 M271.772429,175.88728 L251.917609,200.402426 M291,247.64746 L261.547478,236.342829 M266.420714,278.000886 L249.237731,251.543667 M209.353186,284 L220.657728,254.547245 M192.228505,274.11272 L212.083324,249.597574 M179,259.42052 L205.45701,242.237401" id="Shape"></path>
            <line x1="269" y1="278" x2="251" y2="251" id="Path"></line>
            <path d="M197,174.127654 L214.471281,199.304771 M233.065588,163 L232.532794,193.73295 M267,275 L249.528719,249.822883" id="Shape"></path>
            <path d="M267,176 L249.145691,201.003462 M267,276.176233 L249.145691,251.172771 M250.035513,284.969462 L240.648484,255.577505 M231.283557,288 L231.283557,257.093789 M182,262.478931 L206.575861,244.313971" id="Shape"></path>
            <path d="M251.279062,166 L242.403629,194.833808 M291,204.097032 L262.297328,213.914328 M270.097317,272 L251.828868,247.92082 M176,243.426226 L204.702672,233.608929" id="Shape"></path>
            <path d="M211.985496,170 L222.10879,197.43372 M279,188.950436 L255.672581,206.926546 M173,227 L202.586286,225.980675" id="Shape"></path>
            <path d="M288,203 L260.520483,213.670936 M270.059519,270.738474 L251.537293,247.596612 M217.692442,282 L225.31092,253.236445 M176,208.938152 L204.429834,216.646059" id="Shape"></path>
            <path d="M277.655861,188 L255.614325,206.973742 M291,221.884709 L262.297215,223.943343 M255.092993,280.83833 L244.314202,253.468592 M237.521144,285 L235.514507,255.553463 M176,230.13539 L204.702785,228.076757 M177.571866,211.704563 L205.489702,218.845197" id="Shape"></path>
            <path d="M254,279 L242.467412,252.123371 M172,230.255862 L201.400149,227.710971 M173.290231,212 L202.046284,218.567916" id="Shape"></path>
            <path d="M209.609875,172 L221.564112,198.768967 M263,174.790137 L248.304285,200.165058 M239.714868,284 L236.641214,254.859927 M221.318056,283.039293 L227.428455,254.37753 M175,231.760042 L204.231493,228.696001 M175.963721,213.420765 L204.715404,219.512054" id="Shape"></path>
            <path d="M209,173.996633 L220.869195,200.204504 M225.919243,169 L229.342668,197.702112 M260.050599,175.830634 L246.43605,201.123543 M273.92042,186.98951 L253.381845,206.713169 M288,237.554949 L260.432518,232.036645 M239.632734,284 L236.209308,255.297888" id="Shape"></path>
            <line x1="284" y1="200" x2="260" y2="212" id="Path"></line>
            <path d="M257,178 L244.193404,202.385416 M240.186146,281 L235.773295,253.970026 M205.692497,275.699079 L218.499093,251.313663 M181,251.740649 L206.132565,239.314771" id="Shape"></path>
            <path d="M207.180835,177.621857 L219.99463,201.94589 M223.356666,172 L228.096422,199.130961 M270.837487,186.650839 L251.87648,206.467384 M282,250.54194 L257.466656,238.465952 M225.241864,281 L229.040012,253.71899 M179,235.933116 L205.882407,231.149536" id="Shape"></path>
            <path d="M270.297216,184 L251.642588,204.404461 M273,263 L252.99699,243.970982 M185,251.978029 L208.923752,238.450786" id="Shape"></path>
            <path d="M252.469363,176 L242,201.271249 M266,185.443154 L248.776762,206" id="Shape"></path>
            <path d="M237.275196,172 L234.916547,198.749711 M279,197.883511 L255.81438,211.712568 M244.741889,278 L238.655968,251.837135 M197,266.184707 L214.747568,245.920444" id="Shape"></path>
            <path d="M220.125249,175 L226.446207,200.352965 M277.173865,198.049766 L255.016934,211.896613 M285,229.43727 L258.935927,227.616044 M245.448585,276.573834 L239.127627,251.220869 M229.136564,278 L230.95779,251.935927 M182,238.448585 L207.352965,232.127627" id="Shape"></path>
            <line x1="194" y1="191" x2="212" y2="209" id="Path"></line>
        </g>
    </g>
</svg>